<svg viewBox="0 0 19 13" fill="none" xmlns="http://www.w3.org/2000/svg">
<path d="M0.885952 3.99498L2.78448 3.10807C2.91537 3.0461 3.06346 3.03053 3.20438 3.06391C3.34529 3.0973 3.47066 3.17765 3.55984 3.29175L5.26299 5.36922L10.6082 1.43562C11.1781 1.0195 11.8327 0.734078 12.5254 0.59965C13.2181 0.465222 13.9319 0.485094 14.6161 0.657851C15.3003 0.830609 15.938 1.15201 16.4838 1.59919C17.0297 2.04637 17.4703 2.60834 17.7744 3.24513C17.9205 3.55787 17.9363 3.91585 17.8185 4.2403C17.7007 4.56476 17.4588 4.82911 17.146 4.97522L11.9575 7.39908L11.6487 9.81311C11.5907 10.2448 11.4254 10.655 11.1678 11.0063C10.9103 11.3575 10.5687 11.6385 10.1744 11.8235L8.87726 12.4294C8.77607 12.4757 8.66469 12.4953 8.55377 12.4863C8.44285 12.4773 8.3361 12.44 8.24371 12.3779C8.15132 12.3159 8.07638 12.2312 8.02606 12.1319C7.97574 12.0327 7.95171 11.9222 7.95627 11.811L8.03545 9.27439L4.78082 10.7948C4.46808 10.9409 4.1101 10.9568 3.78565 10.839C3.46119 10.7211 3.19684 10.4792 3.05074 10.1665L0.571785 4.86002C0.498734 4.70365 0.490794 4.52466 0.549712 4.36244C0.608629 4.20021 0.729579 4.06803 0.885952 3.99498Z" stroke="currentColor" stroke-linecap="round" stroke-linejoin="round"/>
</svg>
