<svg viewBox="0 0 20 20" fill="none" xmlns="http://www.w3.org/2000/svg">
<path d="M12.6957 19.2167C13.6411 19.8276 14.7677 20.0938 15.8861 19.9706C17.0045 19.8474 18.0464 19.3422 18.8367 18.5401L19.5275 17.8636C19.8304 17.5533 20 17.1366 20 16.7027C20 16.2688 19.8304 15.8521 19.5275 15.5418L16.5952 12.6357C16.288 12.3333 15.8745 12.1639 15.4438 12.1639C15.013 12.1639 14.5995 12.3333 14.2923 12.6357V12.6357C13.9825 12.9391 13.5665 13.1089 13.1332 13.1089C12.6999 13.1089 12.2839 12.9391 11.9741 12.6357L7.36833 8.02287C7.21469 7.87123 7.09268 7.6905 7.0094 7.49121C6.92612 7.29191 6.88323 7.07802 6.88323 6.86198C6.88323 6.64593 6.92612 6.43204 7.0094 6.23275C7.09268 6.03345 7.21469 5.85272 7.36833 5.70108V5.70108C7.67025 5.3934 7.83942 4.97926 7.83942 4.54787C7.83942 4.11648 7.67025 3.70234 7.36833 3.39466L4.45135 0.473195C4.14155 0.169848 3.7255 0 3.29224 0C2.85898 0 2.44293 0.169848 2.13312 0.473195L1.45761 1.16512C0.656741 1.9566 0.152393 3.00011 0.0293715 4.12021C-0.0936501 5.24031 0.172158 6.36867 0.7821 7.31557C3.96014 12.0064 8.00383 16.0459 12.6957 19.2167V19.2167Z" fill="currentColor"/>
</svg>
