<svg viewBox="0 0 29.5 29.0298" fill="none" xmlns="http://www.w3.org/2000/svg">
<g>
<g>
<g>
<path d="M7.31242 28.5298L23.8581 28.5298C24.9331 28.5298 25.8046 27.6583 25.8046 26.5833L25.8046 13.9308C25.8046 12.8557 24.9331 11.9842 23.8581 11.9842L7.31242 11.9842C6.23737 11.9842 5.36587 12.8557 5.36587 13.9308L5.36587 26.5833C5.36587 27.6583 6.23737 28.5298 7.31242 28.5298Z" stroke="#5A759D" stroke-linecap="round" stroke-linejoin="round"/>
<path d="M0.5 23.6636V9.06449C0.5 8.54824 0.705082 8.05312 1.07013 7.68808C1.43518 7.32303 1.93029 7.11795 2.44655 7.11795H19.9655" stroke="#5A759D" stroke-linecap="round" stroke-linejoin="round"/>
</g>
<path d="M6.53304 28.3741L14.183 20.296C14.3639 20.0971 14.584 19.9379 14.8296 19.8284C15.0751 19.7189 15.3406 19.6614 15.6094 19.6595C15.8782 19.6577 16.1445 19.7116 16.3915 19.8178C16.6385 19.924 16.8608 20.0801 17.0444 20.2765L24.7332 28.3352" stroke="#5A759D" stroke-linecap="round" stroke-linejoin="round"/>
</g>
<path d="M23.932 0H25.1251V4.01029H29.5V5.104H25.1251V9.11429H23.932V5.104H19.5571V4.01029H23.932V0Z" fill="url(#paint0_linear_0_46)"/>
</g>
<defs>
<linearGradient id="paint0_linear_0_46" x1="24.5949" y1="-7.37823" x2="18.9652" y2="15.6278" gradientUnits="userSpaceOnUse">
<stop stop-color="#FF46A3"/>
<stop offset="1" stop-color="#4A91FC"/>
</linearGradient>
</defs>
</svg>
