<svg viewBox="0 0 35.1335 35.1804" fill="none" xmlns="http://www.w3.org/2000/svg">
<g>
<path d="M15.8829 18.7279L19.7381 10.733" stroke="currentColor" stroke-width="2" stroke-linecap="round" stroke-linejoin="round"/>
<path d="M13.6563 34.1803V26.2803" stroke="currentColor" stroke-width="2" stroke-linecap="round" stroke-linejoin="round"/>
<path d="M17.9527 34.1803H9.35746" stroke="currentColor" stroke-width="2" stroke-linecap="round" stroke-linejoin="round"/>
<path d="M34.1177 27.2915V31.5259C34.1177 32.2299 33.8381 32.9051 33.3403 33.4029C32.8425 33.9007 32.1673 34.1804 31.4633 34.1804H26.1545C25.4505 34.1804 24.7753 33.9007 24.2775 33.4029C23.7797 32.9051 23.5 32.2299 23.5 31.5259V27.2915H34.1177ZM24.3058 16.7686L26.3125 14.9674H23.5V13.3874C23.5 12.6834 23.7797 12.0083 24.2775 11.5105C24.7753 11.0127 25.4505 10.733 26.1545 10.733H27.0393V1.90075C27.0372 1.78323 27.0585 1.66647 27.102 1.55729C27.1456 1.44811 27.2104 1.3487 27.2928 1.26486C27.3751 1.18102 27.4734 1.11442 27.5818 1.06897C27.6902 1.02352 27.8065 1.00012 27.9241 1.00014H29.7095C29.8283 0.998002 29.9464 1.01983 30.0566 1.06433C30.1669 1.10884 30.267 1.17509 30.3511 1.25915C30.4351 1.34321 30.5014 1.44335 30.5459 1.55358C30.5904 1.66382 30.6122 1.78189 30.6101 1.90075V10.733H31.4791C32.1831 10.733 32.8583 11.0127 33.3561 11.5105C33.8539 12.0083 34.1335 12.6834 34.1335 13.3874V16.7686H24.3058Z" stroke="currentColor" stroke-width="2" stroke-linecap="round" stroke-linejoin="round"/>
<path d="M23.5 27.2915V17.4955L24.3058 16.7687H34.1177V27.2915H23.5Z" stroke="currentColor" stroke-width="2" stroke-linecap="round" stroke-linejoin="round"/>
<path d="M26.3276 14.9674L13.6559 26.2803L1.00004 14.9674H26.3276Z" stroke="currentColor" stroke-width="2" stroke-linecap="round" stroke-linejoin="round"/>
<path d="M19.2191 21.319C17.0387 20.9872 15.1743 20.1972 12.3935 19.6284C10.434 19.2703 8.4188 19.3621 6.50004 19.897" stroke="currentColor" stroke-width="2" stroke-linecap="round" stroke-linejoin="round"/>
</g>
</svg>
